P2
# CREATOR: GIMP PNM Filter Version 1.1
35 35
255
69
69
68
67
65
65
64
62
62
61
59
59
57
55
56
58
58
58
56
55
55
56
52
48
51
53
60
67
73
80
88
96
103
115
114
69
66
64
62
61
60
60
60
59
56
53
51
49
49
50
49
48
48
49
39
29
33
38
41
45
46
47
50
54
60
65
78
94
107
120
62
61
59
57
55
54
53
51
49
46
42
38
38
38
36
34
34
34
32
29
27
26
32
35
36
38
43
43
47
52
56
62
75
88
101
60
58
58
56
54
52
50
47
43
37
32
31
31
31
30
28
26
26
26
26
27
25
27
28
30
33
39
39
40
43
46
50
55
67
86
56
55
53
51
47
45
41
38
33
29
28
26
25
26
24
22
21
20
20
20
23
23
24
27
28
29
32
35
38
40
42
46
49
51
69
53
52
51
48
45
38
33
31
28
26
25
24
23
22
19
21
22
21
21
22
22
23
23
27
27
27
29
36
35
36
36
43
45
50
52
49
48
46
43
40
33
30
29
26
24
23
23
21
20
20
22
22
21
22
23
26
30
29
29
29
32
35
37
38
38
41
44
45
49
50
46
45
44
39
36
31
28
26
21
25
23
22
20
20
21
22
22
23
24
26
29
31
32
32
32
34
37
38
40
42
44
44
45
49
50
42
39
36
33
32
30
28
24
25
26
24
23
25
26
26
26
27
28
30
32
34
36
37
38
39
41
43
46
46
47
48
48
48
49
50
38
37
32
32
30
29
28
26
26
27
26
26
28
29
30
31
32
34
36
37
38
39
40
41
44
46
48
48
49
49
49
49
48
50
51
38
36
35
35
33
29
29
30
29
29
30
31
31
32
30
31
32
34
36
38
39
43
42
42
44
46
47
49
51
52
52
53
52
52
53
39
37
36
36
36
34
33
33
34
34
34
32
32
31
31
31
30
33
35
37
40
42
43
43
45
47
51
52
54
54
55
55
55
55
56
40
38
37
36
37
37
36
36
32
30
28
27
27
27
29
30
30
32
35
36
37
39
43
42
44
47
48
51
53
54
55
56
56
56
58
41
38
38
37
37
37
37
33
30
27
24
24
24
24
28
29
33
35
37
40
42
42
42
42
43
44
45
47
49
51
55
56
57
57
59
41
39
38
37
35
33
30
28
25
22
22
21
22
22
24
27
26
26
27
28
31
35
36
39
40
42
42
43
45
48
50
52
55
57
59
42
37
36
35
34
30
28
25
21
21
22
21
21
20
19
20
22
21
22
22
24
28
32
35
39
40
46
43
43
45
47
49
53
55
58
42
36
35
33
31
29
25
22
20
19
22
21
19
18
17
17
17
18
19
19
21
24
29
32
35
38
39
42
42
39
42
46
48
51
57
43
35
36
30
27
25
23
21
19
20
23
21
18
16
15
16
18
18
19
19
19
22
26
29
32
32
31
35
40
39
39
43
47
50
55
41
36
34
28
26
25
23
22
21
23
22
21
19
16
16
17
17
19
18
19
20
21
35
43
40
37
33
28
34
39
38
37
44
50
54
40
37
33
29
26
25
23
22
22
24
28
25
20
19
18
17
17
17
19
20
22
28
45
48
49
43
36
30
27
37
34
38
41
49
54
41
39
33
30
28
25
25
24
24
26
29
33
26
22
19
17
16
16
19
22
26
35
46
52
51
47
38
37
36
37
39
41
44
48
53
43
39
35
32
29
24
23
25
25
28
31
32
32
26
20
17
12
15
15
25
29
39
48
49
47
42
38
40
42
43
43
44
46
50
53
45
40
38
36
28
23
23
25
27
31
31
32
33
31
26
19
19
20
26
30
36
45
46
48
45
40
41
43
47
51
50
51
52
53
56
47
44
42
38
27
25
23
27
28
31
31
33
35
34
31
30
31
33
37
40
44
45
43
43
44
43
44
47
52
54
57
56
56
57
60
53
51
44
41
38
33
32
31
32
33
33
34
34
36
36
36
38
40
41
43
45
45
43
44
46
47
50
54
56
58
59
61
61
62
65
56
55
48
46
44
41
38
37
36
35
35
35
34
35
37
37
38
39
40
41
42
43
44
45
47
49
53
56
58
59
62
62
63
63
65
63
59
56
54
49
45
42
40
37
38
34
35
36
35
37
37
38
40
41
42
43
43
44
48
48
52
53
57
57
60
61
63
63
66
66
66
64
60
57
53
50
46
43
39
40
35
34
34
37
38
38
40
40
43
44
45
45
46
47
50
51
52
54
56
61
62
64
65
66
68
71
70
66
63
58
55
49
47
45
43
41
39
38
38
38
37
40
41
41
41
43
45
46
47
48
51
53
54
58
63
64
66
69
72
75
71
70
68
66
62
59
53
51
49
48
48
44
40
37
36
37
39
39
40
40
40
47
45
48
49
51
54
57
59
65
67
69
71
76
80
72
75
71
69
65
62
59
57
56
55
52
51
49
48
48
48
47
47
44
42
46
50
50
51
56
61
62
63
67
71
72
73
76
81
83
74
75
74
71
69
66
63
61
61
58
56
55
54
52
52
53
53
53
55
56
57
59
61
63
65
66
68
70
73
74
76
77
80
83
87
73
76
74
73
71
69
67
66
66
65
64
63
61
59
59
59
59
59
60
63
65
66
68
71
71
72
73
75
75
76
77
81
82
85
87
74
74
71
73
72
70
69
69
68
68
68
67
65
63
61
59
59
59
61
66
68
69
71
72
72
73
74
76
76
77
78
82
84
85
88
74
74
73
74
74
74
73
72
72
73
72
71
70
69
68
67
68
67
68
70
70
71
71
73
73
73
75
78
78
78
79
83
84
85
87
