P2
# CREATOR: GIMP PNM Filter Version 1.1
9 9
255
22
24
27
26
26
27
28
31
35
20
19
20
22
21
22
22
24
28
18
17
17
17
18
19
19
21
24
16
15
16
18
18
19
19
19
22
16
16
17
17
19
18
19
20
21
19
18
17
17
17
19
20
22
28
22
19
17
16
16
19
22
26
35
26
20
17
12
15
15
25
29
39
31
26
19
19
20
26
30
36
45
